<mxfile host="Electron" agent="Mozilla/5.0 (Windows NT 10.0; Win64; x64) AppleWebKit/537.36 (KHTML, like Gecko) draw.io/25.0.1 Chrome/128.0.6613.186 Electron/32.2.6 Safari/537.36" version="25.0.1">
  <diagram name="第 1 页" id="VX8x2q7U5yT6BQhmhuAg">
    <mxGraphModel dx="398" dy="271" grid="1" gridSize="3.937" guides="1" tooltips="1" connect="1" arrows="1" fold="1" page="1" pageScale="1" pageWidth="48" pageHeight="48" background="#EBEBEB" math="0" shadow="0">
      <root>
        <mxCell id="0" />
        <mxCell id="1" parent="0" />
        <mxCell id="m2IPdk2dwQmaY68E_JDl-3" value="" style="endArrow=oval;html=1;rounded=0;strokeWidth=2;strokeColor=#404040;startArrow=oval;startFill=1;endFill=1;" parent="1" edge="1">
          <mxGeometry width="50" height="50" relative="1" as="geometry">
            <mxPoint x="8" y="39" as="sourcePoint" />
            <mxPoint x="8" y="8" as="targetPoint" />
          </mxGeometry>
        </mxCell>
        <mxCell id="m2IPdk2dwQmaY68E_JDl-4" value="" style="endArrow=oval;html=1;rounded=0;strokeWidth=2;startArrow=none;startFill=0;endFill=1;strokeColor=#404040;" parent="1" edge="1">
          <mxGeometry width="50" height="50" relative="1" as="geometry">
            <mxPoint x="8" y="39" as="sourcePoint" />
            <mxPoint x="39" y="39" as="targetPoint" />
          </mxGeometry>
        </mxCell>
        <mxCell id="m2IPdk2dwQmaY68E_JDl-6" value="" style="endArrow=none;html=1;rounded=0;strokeWidth=2;strokeColor=#404040;dashed=1;dashPattern=1 2;" parent="1" edge="1">
          <mxGeometry width="50" height="50" relative="1" as="geometry">
            <mxPoint x="39.367" y="38.876999999999995" as="sourcePoint" />
            <mxPoint x="39.367" y="7.877" as="targetPoint" />
          </mxGeometry>
        </mxCell>
        <mxCell id="m2IPdk2dwQmaY68E_JDl-7" value="" style="endArrow=oval;html=1;rounded=0;strokeWidth=2;strokeColor=#404040;endFill=1;" parent="1" edge="1">
          <mxGeometry width="50" height="50" relative="1" as="geometry">
            <mxPoint x="8" y="8" as="sourcePoint" />
            <mxPoint x="39" y="8" as="targetPoint" />
          </mxGeometry>
        </mxCell>
      </root>
    </mxGraphModel>
  </diagram>
</mxfile>
